<svg width="24" height="24" viewBox="0 0 24 24" fill="none" xmlns="http://www.w3.org/2000/svg">
<g clip-path="url(#clip0_28_23)">
<path d="M11.267 8.43466V8.32386C11.2699 7.80966 11.3182 7.40057 11.4119 7.09659C11.5085 6.79261 11.6449 6.5483 11.821 6.36364C11.9972 6.17614 12.2116 6.00426 12.4645 5.84801C12.6378 5.74006 12.7926 5.62216 12.929 5.49432C13.0682 5.36364 13.1776 5.21875 13.2571 5.05966C13.3366 4.89773 13.3764 4.71733 13.3764 4.51847C13.3764 4.29403 13.3239 4.09943 13.2188 3.93466C13.1136 3.76989 12.9716 3.64205 12.7926 3.55114C12.6165 3.46023 12.419 3.41477 12.2003 3.41477C11.9986 3.41477 11.8068 3.45881 11.625 3.54688C11.446 3.6321 11.2969 3.76278 11.1776 3.93892C11.0611 4.11222 10.9957 4.33239 10.9815 4.59943H9.46449C9.47869 4.05966 9.60938 3.60795 9.85653 3.24432C10.1065 2.88068 10.4361 2.60795 10.8452 2.42614C11.2571 2.24432 11.7116 2.15341 12.2088 2.15341C12.7514 2.15341 13.2287 2.24858 13.6406 2.43892C14.0554 2.62926 14.3778 2.90057 14.608 3.25284C14.8409 3.60227 14.9574 4.01705 14.9574 4.49716C14.9574 4.82102 14.9048 5.1108 14.7997 5.36648C14.6974 5.62216 14.5511 5.84943 14.3608 6.0483C14.1705 6.24716 13.9446 6.42472 13.6832 6.58097C13.4531 6.72301 13.2642 6.87074 13.1165 7.02415C12.9716 7.17756 12.8636 7.35795 12.7926 7.56534C12.7244 7.76989 12.6889 8.02273 12.6861 8.32386V8.43466H11.267ZM12.0085 11.0938C11.7528 11.0938 11.5327 11.0028 11.348 10.821C11.1634 10.6392 11.071 10.4176 11.071 10.1562C11.071 9.90057 11.1634 9.68182 11.348 9.5C11.5327 9.31818 11.7528 9.22727 12.0085 9.22727C12.2614 9.22727 12.4801 9.31818 12.6648 9.5C12.8523 9.68182 12.946 9.90057 12.946 10.1562C12.946 10.3295 12.902 10.4872 12.8139 10.6293C12.7287 10.7713 12.6151 10.8849 12.473 10.9702C12.3338 11.0526 12.179 11.0938 12.0085 11.0938Z" fill="black"/>
<path d="M4 21V17C4 15.8954 4.89543 15 6 15H18C19.1046 15 20 15.8954 20 17V21" stroke="black" stroke-width="2" stroke-linecap="round" stroke-linejoin="round"/>
</g>
<defs>
<clipPath id="clip0_28_23">
<rect width="24" height="24" fill="white"/>
</clipPath>
</defs>
</svg>
